<svg width="2398" height="2074" xmlns="http://www.w3.org/2000/svg" xmlns:xlink="http://www.w3.org/1999/xlink" xml:space="preserve" overflow="hidden"><g transform="translate(-43 -91)"><text fill="#2F5597" font-family="Calibri,Calibri_MSFontService,sans-serif" font-style="italic" font-weight="400" font-size="55" transform="matrix(1 0 0 1 1672.26 358)">Select</text><text fill="#2F5597" font-family="Calibri,Calibri_MSFontService,sans-serif" font-style="italic" font-weight="400" font-size="55" transform="matrix(1 0 0 1 1816.06 358)">relevant </text><text fill="#2F5597" font-family="Calibri,Calibri_MSFontService,sans-serif" font-style="italic" font-weight="400" font-size="55" transform="matrix(1 0 0 1 2011.13 358)">speakers</text><text fill="#2F5597" font-family="Calibri,Calibri_MSFontService,sans-serif" font-style="italic" font-weight="400" font-size="55" transform="matrix(1 0 0 1 332.671 333)">Seperate</text><text fill="#2F5597" font-family="Calibri,Calibri_MSFontService,sans-serif" font-style="italic" font-weight="400" font-size="55" transform="matrix(1 0 0 1 541.762 333)">text</text><text fill="#2F5597" font-family="Calibri,Calibri_MSFontService,sans-serif" font-style="italic" font-weight="400" font-size="55" transform="matrix(1 0 0 1 639.891 333)">files</text><text fill="#2F5597" font-family="Calibri,Calibri_MSFontService,sans-serif" font-style="italic" font-weight="400" font-size="55" transform="matrix(1 0 0 1 741.871 333)">by</text><text fill="#2F5597" font-family="Calibri,Calibri_MSFontService,sans-serif" font-style="italic" font-weight="400" font-size="55" transform="matrix(1 0 0 1 332.671 399)">attendee</text><text fill="#2F5597" font-family="Calibri,Calibri_MSFontService,sans-serif" font-style="italic" font-weight="400" font-size="55" transform="matrix(1 0 0 1 531.564 399)">, </text><text fill="#2F5597" font-family="Calibri,Calibri_MSFontService,sans-serif" font-style="italic" font-weight="400" font-size="55" transform="matrix(1 0 0 1 557.919 399)">aggregate</text><rect x="174.5" y="1644.5" width="975" height="128" stroke="#000000" stroke-width="3.4375" stroke-linejoin="round" stroke-miterlimit="10" fill="none"/><text font-family="Calibri,Calibri_MSFontService,sans-serif" font-weight="400" font-size="55" transform="matrix(1 0 0 1 217.276 1726)">LM </text><text font-family="Calibri,Calibri_MSFontService,sans-serif" font-weight="400" font-size="55" transform="matrix(1 0 0 1 299.776 1726)">word</text><text font-family="Calibri,Calibri_MSFontService,sans-serif" font-weight="400" font-size="55" transform="matrix(1 0 0 1 427.421 1726)">frequencies</text><text font-family="Calibri,Calibri_MSFontService,sans-serif" font-weight="400" font-size="55" transform="matrix(1 0 0 1 701.115 1726)">by</text><text font-family="Calibri,Calibri_MSFontService,sans-serif" font-weight="400" font-size="55" transform="matrix(1 0 0 1 766.726 1726)">s</text><text font-family="Calibri,Calibri_MSFontService,sans-serif" font-weight="400" font-size="55" transform="matrix(1 0 0 1 788.496 1726)">peaker</text><text font-family="Calibri,Calibri_MSFontService,sans-serif" font-weight="400" font-size="55" transform="matrix(1 0 0 1 953.451 1726)">&amp; time</text><rect x="44.4998" y="1645.5" width="130" height="129" stroke="#172C51" stroke-width="3.4375" stroke-miterlimit="8" fill="none"/><rect x="174.5" y="2032.5" width="975" height="131" stroke="#000000" stroke-width="3.4375" stroke-linejoin="round" stroke-miterlimit="10" fill="none"/><text font-family="Calibri,Calibri_MSFontService,sans-serif" font-weight="400" font-size="55" transform="matrix(1 0 0 1 273.502 2116)">LM Sentiment by speaker and time</text><rect x="44.4998" y="2033.5" width="130" height="130" stroke="#172C51" stroke-width="3.4375" stroke-miterlimit="8" fill="none"/><rect x="1465.5" y="1255.5" width="974" height="130" stroke="#000000" stroke-width="3.4375" stroke-linejoin="round" stroke-miterlimit="10" fill="none"/><text font-family="Calibri,Calibri_MSFontService,sans-serif" font-weight="400" font-size="55" transform="matrix(1 0 0 1 1743.09 1338)">LM</text><text font-family="Calibri,Calibri_MSFontService,sans-serif" font-weight="400" font-size="55" transform="matrix(1 0 0 1 1812.99 1338)">_</text><text font-family="Calibri,Calibri_MSFontService,sans-serif" font-weight="400" font-size="55" transform="matrix(1 0 0 1 1840.49 1338)">Dictionary</text><text font-family="Calibri,Calibri_MSFontService,sans-serif" font-weight="400" font-size="55" transform="matrix(1 0 0 1 2065.74 1338)">.</text><text font-family="Calibri,Calibri_MSFontService,sans-serif" font-weight="400" font-size="55" transform="matrix(1 0 0 1 2079.49 1338)">xlsx</text><rect x="1335.5" y="1254.5" width="130" height="130" stroke="#172C51" stroke-width="3.4375" stroke-miterlimit="8" fill="none"/><rect x="174.5" y="1256.5" width="975" height="130" stroke="#000000" stroke-width="3.4375" stroke-linejoin="round" stroke-miterlimit="10" fill="none"/><text font-family="Calibri,Calibri_MSFontService,sans-serif" font-weight="400" font-size="55" transform="matrix(1 0 0 1 254.848 1339)">Word </text><text font-family="Calibri,Calibri_MSFontService,sans-serif" font-weight="400" font-size="55" transform="matrix(1 0 0 1 389.85 1339)">frequenc</text><text font-family="Calibri,Calibri_MSFontService,sans-serif" font-weight="400" font-size="55" transform="matrix(1 0 0 1 589.064 1339)">ies</text><text font-family="Calibri,Calibri_MSFontService,sans-serif" font-weight="400" font-size="55" transform="matrix(1 0 0 1 663.543 1339)">by</text><text font-family="Calibri,Calibri_MSFontService,sans-serif" font-weight="400" font-size="55" transform="matrix(1 0 0 1 729.154 1339)">speaker</text><text font-family="Calibri,Calibri_MSFontService,sans-serif" font-weight="400" font-size="55" transform="matrix(1 0 0 1 915.879 1339)">&amp; time</text><rect x="44.4998" y="1256.5" width="130" height="130" stroke="#172C51" stroke-width="3.4375" stroke-miterlimit="8" fill="none"/><rect x="174.5" y="868.5" width="975" height="130" stroke="#000000" stroke-width="3.4375" stroke-linejoin="round" stroke-miterlimit="10" fill="none"/><text font-family="Calibri,Calibri_MSFontService,sans-serif" font-weight="400" font-size="55" transform="matrix(1 0 0 1 301.311 951)">Speaker, </text><text font-family="Calibri,Calibri_MSFontService,sans-serif" font-weight="400" font-size="55" transform="matrix(1 0 0 1 500.503 951)">s</text><text font-family="Calibri,Calibri_MSFontService,sans-serif" font-weight="400" font-size="55" transform="matrix(1 0 0 1 521.655 951)">tatements</text><text font-family="Calibri,Calibri_MSFontService,sans-serif" font-weight="400" font-size="55" transform="matrix(1 0 0 1 750.272 951)">, </text><text font-family="Calibri,Calibri_MSFontService,sans-serif" font-weight="400" font-size="55" transform="matrix(1 0 0 1 776.626 951)">suppl</text><text font-family="Calibri,Calibri_MSFontService,sans-serif" font-weight="400" font-size="55" transform="matrix(1 0 0 1 896.938 951)">. </text><text font-family="Calibri,Calibri_MSFontService,sans-serif" font-weight="400" font-size="55" transform="matrix(1 0 0 1 923.292 951)">data</text><rect x="44.4998" y="868.5" width="130" height="130" stroke="#172C51" stroke-width="3.4375" stroke-miterlimit="8" fill="none"/><g><g><g><path d="M26.5416 39.8124 64.4581 39.8124 64.4581 41.7082 26.5416 41.7082Z" transform="matrix(1 0 0 1 61.9999 114)"/><path d="M26.5416 32.2291 44.552 32.2291 44.552 34.1249 26.5416 34.1249Z" transform="matrix(1 0 0 1 61.9999 114)"/><path d="M26.5416 47.3957 64.4581 47.3957 64.4581 49.2915 26.5416 49.2915Z" transform="matrix(1 0 0 1 61.9999 114)"/><path d="M26.5416 54.979 64.4581 54.979 64.4581 56.8748 26.5416 56.8748Z" transform="matrix(1 0 0 1 61.9999 114)"/><path d="M26.5416 62.5623 64.4581 62.5623 64.4581 64.4581 26.5416 64.4581Z" transform="matrix(1 0 0 1 61.9999 114)"/><path d="M26.5416 70.1456 64.4581 70.1456 64.4581 72.0415 26.5416 72.0415Z" transform="matrix(1 0 0 1 61.9999 114)"/><path d="M17.0625 7.58331 17.0625 83.4164 73.9373 83.4164 73.9373 28.045 53.4756 7.58331ZM54.0472 10.8356 70.685 27.4734C70.6887 27.4771 70.6886 27.4832 70.6849 27.4868 70.6831 27.4885 70.6808 27.4895 70.6784 27.4895L54.0311 27.4895 54.0311 10.8422C54.0312 10.837 54.0355 10.8329 54.0407 10.8329 54.0431 10.8329 54.0455 10.8339 54.0472 10.8356ZM18.9583 81.5206 18.9583 9.47914 52.1353 9.47914 52.1353 29.3853 72.0415 29.3853 72.0415 81.5206Z" transform="matrix(1 0 0 1 61.9999 114)"/></g></g></g><rect x="174.5" y="92.5" width="975" height="130" stroke="#000000" stroke-width="3.4375" stroke-linejoin="round" stroke-miterlimit="10" fill="none"/><text font-family="Calibri,Calibri_MSFontService,sans-serif" font-weight="400" font-size="55" transform="matrix(1 0 0 1 507.836 175)">Transcript.pdf</text><rect x="44.4998" y="92.5" width="130" height="130" stroke="#172C51" stroke-width="3.4375" stroke-miterlimit="8" fill="none"/><g><g><g><path d="M87.979 40.7707 66.5207 40.7707 66.5207 27.8958 87.979 27.8958 87.979 40.7707ZM87.979 57.9374 66.5207 57.9374 66.5207 45.0624 87.979 45.0624 87.979 57.9374ZM87.979 75.104 66.5207 75.104 66.5207 62.229 87.979 62.229 87.979 75.104ZM40.7707 75.104 40.7707 62.229 62.229 62.229 62.229 75.104 40.7707 75.104ZM15.0208 75.104 15.0208 62.229 36.4791 62.229 36.4791 75.104 15.0208 75.104ZM15.0208 45.0624 36.4791 45.0624 36.4791 57.9374 15.0208 57.9374 15.0208 45.0624ZM15.0208 27.8958 36.4791 27.8958 36.4791 40.7707 15.0208 40.7707 15.0208 27.8958ZM62.229 45.0624 62.229 57.9374 40.7707 57.9374 40.7707 45.0624 62.229 45.0624ZM62.229 27.8958 62.229 40.7707 40.7707 40.7707 40.7707 27.8958 62.229 27.8958ZM8.58331 21.4583 8.58331 81.5415 94.4165 81.5415 94.4165 21.4583 8.58331 21.4583Z" transform="matrix(1.00971 0 0 1 57.0001 500)"/></g></g></g><rect x="174.5" y="480.5" width="975" height="131" stroke="#000000" stroke-width="3.4375" stroke-linejoin="round" stroke-miterlimit="10" fill="none"/><text font-family="Calibri,Calibri_MSFontService,sans-serif" font-weight="400" font-size="55" transform="matrix(1 0 0 1 395.075 563)">Statements </text><text font-family="Calibri,Calibri_MSFontService,sans-serif" font-weight="400" font-size="55" transform="matrix(1 0 0 1 661.504 563)">by</text><text font-family="Calibri,Calibri_MSFontService,sans-serif" font-weight="400" font-size="55" transform="matrix(1 0 0 1 727.114 563)">attendee</text><rect x="44.4998" y="480.5" width="130" height="130" stroke="#172C51" stroke-width="3.4375" stroke-miterlimit="8" fill="none"/><g><g><g><path d="M87.979 40.7707 66.5207 40.7707 66.5207 27.8958 87.979 27.8958 87.979 40.7707ZM87.979 57.9374 66.5207 57.9374 66.5207 45.0624 87.979 45.0624 87.979 57.9374ZM87.979 75.104 66.5207 75.104 66.5207 62.229 87.979 62.229 87.979 75.104ZM40.7707 75.104 40.7707 62.229 62.229 62.229 62.229 75.104 40.7707 75.104ZM15.0208 75.104 15.0208 62.229 36.4791 62.229 36.4791 75.104 15.0208 75.104ZM15.0208 45.0624 36.4791 45.0624 36.4791 57.9374 15.0208 57.9374 15.0208 45.0624ZM15.0208 27.8958 36.4791 27.8958 36.4791 40.7707 15.0208 40.7707 15.0208 27.8958ZM62.229 45.0624 62.229 57.9374 40.7707 57.9374 40.7707 45.0624 62.229 45.0624ZM62.229 27.8958 62.229 40.7707 40.7707 40.7707 40.7707 27.8958 62.229 27.8958ZM8.58331 21.4583 8.58331 81.5415 94.4165 81.5415 94.4165 21.4583 8.58331 21.4583Z" transform="matrix(1.00971 0 0 1 1355 500)"/></g></g></g><rect x="1465.5" y="480.5" width="974" height="129" stroke="#000000" stroke-width="3.4375" stroke-linejoin="round" stroke-miterlimit="10" fill="none"/><text font-family="Calibri,Calibri_MSFontService,sans-serif" font-weight="400" font-size="55" transform="matrix(1 0 0 1 1593.16 563)">Speaker, ID</text><text font-family="Calibri,Calibri_MSFontService,sans-serif" font-weight="400" font-size="55" transform="matrix(1 0 0 1 1838.44 563)">, </text><text font-family="Calibri,Calibri_MSFontService,sans-serif" font-weight="400" font-size="55" transform="matrix(1 0 0 1 1864.79 563)">supplementary</text><text font-family="Calibri,Calibri_MSFontService,sans-serif" font-weight="400" font-size="55" transform="matrix(1 0 0 1 2212.8 563)">data</text><rect x="1335.5" y="480.5" width="130" height="130" stroke="#172C51" stroke-width="3.4375" stroke-miterlimit="8" fill="none"/><rect x="1465.5" y="94.5" width="974" height="130" stroke="#000000" stroke-width="3.4375" stroke-linejoin="round" stroke-miterlimit="10" fill="none"/><text font-family="Calibri,Calibri_MSFontService,sans-serif" font-weight="400" font-size="55" transform="matrix(1 0 0 1 1712.34 177)">Speaker</text><text font-family="Calibri,Calibri_MSFontService,sans-serif" font-weight="400" font-size="55" transform="matrix(1 0 0 1 1889.9 177)">_supplem</text><text font-family="Calibri,Calibri_MSFontService,sans-serif" font-weight="400" font-size="55" transform="matrix(1 0 0 1 2109.32 177)">.</text><text font-family="Calibri,Calibri_MSFontService,sans-serif" font-weight="400" font-size="55" transform="matrix(1 0 0 1 2123.07 177)">csv</text><rect x="1335.5" y="95.5001" width="130" height="129" stroke="#172C51" stroke-width="3.4375" stroke-miterlimit="8" fill="none"/><text fill="#2F5597" font-family="Calibri,Calibri_MSFontService,sans-serif" font-style="italic" font-weight="400" font-size="55" transform="matrix(1 0 0 1 300.279 1086)">Split</text><text fill="#2F5597" font-family="Calibri,Calibri_MSFontService,sans-serif" font-style="italic" font-weight="400" font-size="55" transform="matrix(1 0 0 1 409.134 1086)">each</text><text fill="#2F5597" font-family="Calibri,Calibri_MSFontService,sans-serif" font-style="italic" font-weight="400" font-size="55" transform="matrix(1 0 0 1 527.154 1086)">statement</text><text fill="#2F5597" font-family="Calibri,Calibri_MSFontService,sans-serif" font-style="italic" font-weight="400" font-size="55" transform="matrix(1 0 0 1 765.854 1086)">into</text><text fill="#2F5597" font-family="Calibri,Calibri_MSFontService,sans-serif" font-style="italic" font-weight="400" font-size="55" transform="matrix(1 0 0 1 864.35 1086)">tokens</text><text fill="#2F5597" font-family="Calibri,Calibri_MSFontService,sans-serif" font-style="italic" font-weight="400" font-size="55" transform="matrix(1 0 0 1 1009.09 1086)">, </text><text fill="#2F5597" font-family="Calibri,Calibri_MSFontService,sans-serif" font-style="italic" font-weight="400" font-size="55" transform="matrix(1 0 0 1 313.915 1152)">group</text><text fill="#2F5597" font-family="Calibri,Calibri_MSFontService,sans-serif" font-style="italic" font-weight="400" font-size="55" transform="matrix(1 0 0 1 457.717 1152)">by</text><text fill="#2F5597" font-family="Calibri,Calibri_MSFontService,sans-serif" font-style="italic" font-weight="400" font-size="55" transform="matrix(1 0 0 1 522.754 1152)">speaker</text><text fill="#2F5597" font-family="Calibri,Calibri_MSFontService,sans-serif" font-style="italic" font-weight="400" font-size="55" transform="matrix(1 0 0 1 707.692 1152)">&amp; time, </text><text fill="#2F5597" font-family="Calibri,Calibri_MSFontService,sans-serif" font-style="italic" font-weight="400" font-size="55" transform="matrix(1 0 0 1 884.723 1152)">count</text><text font-family="Calibri,Calibri_MSFontService,sans-serif" font-weight="400" font-size="55" transform="matrix(1 0 0 1 1771.31 2023)">Data frame</text><g><g><g><path d="M1714.54 1997.96 1692.46 1997.96 1692.46 1984.71 1714.54 1984.71 1714.54 1997.96ZM1714.54 2015.62 1692.46 2015.62 1692.46 2002.38 1714.54 2002.38 1714.54 2015.62ZM1714.54 2033.29 1692.46 2033.29 1692.46 2020.04 1714.54 2020.04 1714.54 2033.29ZM1665.96 2033.29 1665.96 2020.04 1688.04 2020.04 1688.04 2033.29 1665.96 2033.29ZM1639.46 2033.29 1639.46 2020.04 1661.54 2020.04 1661.54 2033.29 1639.46 2033.29ZM1639.46 2002.38 1661.54 2002.38 1661.54 2015.62 1639.46 2015.62 1639.46 2002.38ZM1639.46 1984.71 1661.54 1984.71 1661.54 1997.96 1639.46 1997.96 1639.46 1984.71ZM1688.04 2002.38 1688.04 2015.62 1665.96 2015.62 1665.96 2002.38 1688.04 2002.38ZM1688.04 1984.71 1688.04 1997.96 1665.96 1997.96 1665.96 1984.71 1688.04 1984.71ZM1632.83 1978.08 1632.83 2039.92 1721.17 2039.92 1721.17 1978.08 1632.83 1978.08Z"/></g></g></g><text font-family="Calibri,Calibri_MSFontService,sans-serif" font-weight="400" font-size="55" transform="matrix(1 0 0 1 1771.31 1906)">External </text><text font-family="Calibri,Calibri_MSFontService,sans-serif" font-weight="400" font-size="55" transform="matrix(1 0 0 1 1966.81 1906)">data</text><g><g><g><path d="M33.8333 50.7499 82.1665 50.7499 82.1665 53.1666 33.8333 53.1666Z" transform="matrix(1.00862 0 0 1 1614 1697)"/><path d="M33.8333 41.0833 56.7916 41.0833 56.7916 43.4999 33.8333 43.4999Z" transform="matrix(1.00862 0 0 1 1614 1697)"/><path d="M33.8333 60.4166 82.1665 60.4166 82.1665 62.8332 33.8333 62.8332Z" transform="matrix(1.00862 0 0 1 1614 1697)"/><path d="M33.8333 70.0832 82.1665 70.0832 82.1665 72.4999 33.8333 72.4999Z" transform="matrix(1.00862 0 0 1 1614 1697)"/><path d="M33.8333 79.7499 82.1665 79.7499 82.1665 82.1665 33.8333 82.1665Z" transform="matrix(1.00862 0 0 1 1614 1697)"/><path d="M33.8333 89.4165 82.1665 89.4165 82.1665 91.8332 33.8333 91.8332Z" transform="matrix(1.00862 0 0 1 1614 1697)"/><path d="M21.75 9.66665 21.75 106.333 94.2499 106.333 94.2499 35.7497 68.1668 9.66665ZM68.8954 13.8124 90.1041 35.0211C90.1088 35.0258 90.1087 35.0335 90.104 35.0381 90.1017 35.0403 90.0988 35.0416 90.0956 35.0416L68.8749 35.0416 68.8749 13.8209C68.875 13.8143 68.8805 13.8089 68.8871 13.8089 68.8902 13.8091 68.8933 13.8103 68.8954 13.8124ZM24.1666 103.917 24.1666 12.0833 66.4582 12.0833 66.4582 37.4583 91.8332 37.4583 91.8332 103.917Z" transform="matrix(1.00862 0 0 1 1614 1697)"/></g></g></g><text font-family="Calibri,Calibri_MSFontService,sans-serif" font-weight="400" font-size="55" transform="matrix(1 0 0 1 1771.31 1781)">Text </text><text font-family="Calibri,Calibri_MSFontService,sans-serif" font-weight="400" font-size="55" transform="matrix(1 0 0 1 1875.19 1781)">file</text><rect x="1574.5" y="1664.5" width="565" height="433" stroke="#172C51" stroke-width="4.58333" stroke-miterlimit="8" fill="none"/><text fill="#2F5597" font-family="Calibri,Calibri_MSFontService,sans-serif" font-style="italic" font-weight="400" font-size="55" transform="matrix(1 0 0 1 561.177 1904)">compute</text><path d="M1.14577-0.0122877 3.24762 195.975 0.956084 196-1.14577 0.0122877ZM15.8019 191.257 2.3476 218.903-11.6965 191.552Z" fill="#4472C4" transform="matrix(-1 0 0 1 107.347 222)"/><path d="M1.14577-0.0122877 3.24762 195.975 0.956084 196-1.14577 0.0122877ZM15.8019 191.257 2.3476 218.903-11.6965 191.552Z" fill="#4472C4" transform="matrix(-1 0 0 1 103.348 609)"/><path d="M1.14577-0.0122877 3.24762 195.975 0.956084 196-1.14577 0.0122877ZM15.8019 191.257 2.3476 218.903-11.6965 191.552Z" fill="#4472C4" transform="matrix(-1 0 0 1 103.348 992)"/><path d="M1.14577-0.0122877 3.24762 195.975 0.956084 196-1.14577 0.0122877ZM15.8019 191.257 2.3476 218.903-11.6965 191.552Z" fill="#4472C4" transform="matrix(-1 0 0 1 100.348 1384)"/><path d="M1.14577-0.0122877 3.24762 195.975 0.956084 196-1.14577 0.0122877ZM15.8019 191.257 2.3476 218.903-11.6965 191.552Z" fill="#4472C4" transform="matrix(-1 0 0 1 102.348 1772)"/><path d="M1.14577-0.0122877 3.24762 195.975 0.956084 196-1.14577 0.0122877ZM15.8019 191.257 2.3476 218.903-11.6965 191.552Z" fill="#4472C4" transform="matrix(-1 0 0 1 1403.35 231)"/><path d="M1400 610 1403.03 711.571" stroke="#4472C4" stroke-width="2.29167" stroke-miterlimit="8" fill="none" fill-rule="evenodd"/><path d="M1405 1389 1406.51 1496.72" stroke="#4472C4" stroke-width="2.29167" stroke-miterlimit="8" fill="none" fill-rule="evenodd"/><path d="M0 0 1300.26 0.000360892" stroke="#4472C4" stroke-width="2.29167" stroke-miterlimit="8" fill="none" fill-rule="evenodd" transform="matrix(-1 0 0 1 1406.26 716)"/><path d="M1412.78 1498.82 101 1494" stroke="#4472C4" stroke-width="2.29167" stroke-miterlimit="8" fill="none" fill-rule="evenodd"/><rect x="440" y="1449" width="423" height="100" fill="#FFFFFF"/><text fill="#2F5597" font-family="Calibri,Calibri_MSFontService,sans-serif" font-style="italic" font-weight="400" font-size="55" transform="matrix(1 0 0 1 546.356 1517)">Inner</text><text fill="#2F5597" font-family="Calibri,Calibri_MSFontService,sans-serif" font-style="italic" font-weight="400" font-size="55" transform="matrix(1 0 0 1 674.116 1517)">join</text><rect x="464" y="668" width="374" height="100" fill="#FFFFFF"/><text fill="#2F5597" font-family="Calibri,Calibri_MSFontService,sans-serif" font-style="italic" font-weight="400" font-size="55" transform="matrix(1 0 0 1 546.356 735)">Inner</text><text fill="#2F5597" font-family="Calibri,Calibri_MSFontService,sans-serif" font-style="italic" font-weight="400" font-size="55" transform="matrix(1 0 0 1 674.116 735)">join</text><g><g><g><path d="M145.833 925.167 124.167 925.167 124.167 912.167 145.833 912.167 145.833 925.167ZM145.833 942.5 124.167 942.5 124.167 929.5 145.833 929.5 145.833 942.5ZM145.833 959.833 124.167 959.833 124.167 946.833 145.833 946.833 145.833 959.833ZM98.1667 959.833 98.1667 946.833 119.833 946.833 119.833 959.833 98.1667 959.833ZM72.1667 959.833 72.1667 946.833 93.8333 946.833 93.8333 959.833 72.1667 959.833ZM72.1667 929.5 93.8333 929.5 93.8333 942.5 72.1667 942.5 72.1667 929.5ZM72.1667 912.167 93.8333 912.167 93.8333 925.167 72.1667 925.167 72.1667 912.167ZM119.833 929.5 119.833 942.5 98.1667 942.5 98.1667 929.5 119.833 929.5ZM119.833 912.167 119.833 925.167 98.1667 925.167 98.1667 912.167 119.833 912.167ZM65.6667 905.667 65.6667 966.333 152.333 966.333 152.333 905.667 65.6667 905.667Z"/></g></g></g><g><g><g><path d="M88.8332 41.1666 67.1665 41.1666 67.1665 28.1666 88.8332 28.1666 88.8332 41.1666ZM88.8332 58.4999 67.1665 58.4999 67.1665 45.4999 88.8332 45.4999 88.8332 58.4999ZM88.8332 75.8332 67.1665 75.8332 67.1665 62.8332 88.8332 62.8332 88.8332 75.8332ZM41.1666 75.8332 41.1666 62.8332 62.8332 62.8332 62.8332 75.8332 41.1666 75.8332ZM15.1666 75.8332 15.1666 62.8332 36.8333 62.8332 36.8333 75.8332 15.1666 75.8332ZM15.1666 45.4999 36.8333 45.4999 36.8333 58.4999 15.1666 58.4999 15.1666 45.4999ZM15.1666 28.1666 36.8333 28.1666 36.8333 41.1666 15.1666 41.1666 15.1666 28.1666ZM62.8332 45.4999 62.8332 58.4999 41.1666 58.4999 41.1666 45.4999 62.8332 45.4999ZM62.8332 28.1666 62.8332 41.1666 41.1666 41.1666 41.1666 28.1666 62.8332 28.1666ZM8.66665 21.6666 8.66665 82.3332 95.3331 82.3332 95.3331 21.6666 8.66665 21.6666Z" transform="matrix(1 0 0 1 57.0001 1276)"/></g></g></g><g><g><g><path d="M145.833 1705.17 124.167 1705.17 124.167 1692.17 145.833 1692.17 145.833 1705.17ZM145.833 1722.5 124.167 1722.5 124.167 1709.5 145.833 1709.5 145.833 1722.5ZM145.833 1739.83 124.167 1739.83 124.167 1726.83 145.833 1726.83 145.833 1739.83ZM98.1667 1739.83 98.1667 1726.83 119.833 1726.83 119.833 1739.83 98.1667 1739.83ZM72.1667 1739.83 72.1667 1726.83 93.8333 1726.83 93.8333 1739.83 72.1667 1739.83ZM72.1667 1709.5 93.8333 1709.5 93.8333 1722.5 72.1667 1722.5 72.1667 1709.5ZM72.1667 1692.17 93.8333 1692.17 93.8333 1705.17 72.1667 1705.17 72.1667 1692.17ZM119.833 1709.5 119.833 1722.5 98.1667 1722.5 98.1667 1709.5 119.833 1709.5ZM119.833 1692.17 119.833 1705.17 98.1667 1705.17 98.1667 1692.17 119.833 1692.17ZM65.6667 1685.67 65.6667 1746.33 152.333 1746.33 152.333 1685.67 65.6667 1685.67Z"/></g></g></g><g><g><g><path d="M19.6875 8.74999 19.6875 96.2499 85.3124 96.2499 85.3124 32.3596 61.7027 8.74999ZM62.3622 12.5026 81.5597 31.7001C81.564 31.7044 81.5639 31.7114 81.5596 31.7155 81.5575 31.7175 81.5549 31.7187 81.5521 31.7187L62.3437 31.7187 62.3437 12.5103C62.3438 12.5043 62.3487 12.4995 62.3547 12.4995 62.3575 12.4996 62.3603 12.5007 62.3622 12.5026ZM21.875 94.0624 21.875 10.9375 60.1562 10.9375 60.1562 33.9062 83.1249 33.9062 83.1249 94.0624Z" transform="matrix(1 0 0 1.11429 1353 102)"/></g></g></g><g><g><g><path d="M64.9166 30.0833 49.0833 30.0833 49.0833 20.5833 64.9166 20.5833 64.9166 30.0833ZM64.9166 42.75 49.0833 42.75 49.0833 33.25 64.9166 33.25 64.9166 42.75ZM64.9166 55.4166 49.0833 55.4166 49.0833 45.9166 64.9166 45.9166 64.9166 55.4166ZM30.0833 55.4166 30.0833 45.9166 45.9166 45.9166 45.9166 55.4166 30.0833 55.4166ZM11.0833 55.4166 11.0833 45.9166 26.9167 45.9166 26.9167 55.4166 11.0833 55.4166ZM11.0833 33.25 26.9167 33.25 26.9167 42.75 11.0833 42.75 11.0833 33.25ZM11.0833 20.5833 26.9167 20.5833 26.9167 30.0833 11.0833 30.0833 11.0833 20.5833ZM45.9166 33.25 45.9166 42.75 30.0833 42.75 30.0833 33.25 45.9166 33.25ZM45.9166 20.5833 45.9166 30.0833 30.0833 30.0833 30.0833 20.5833 45.9166 20.5833ZM6.33333 15.8333 6.33333 60.1666 69.6666 60.1666 69.6666 15.8333 6.33333 15.8333Z" transform="matrix(1 0 0 1.06579 1354 132)"/></g></g></g><g><g><g><path d="M19.875 8.83332 19.875 97.1665 86.1249 97.1665 86.1249 32.6678 62.2904 8.83332ZM62.9562 12.6217 82.3365 32.002C82.3408 32.0063 82.3407 32.0134 82.3364 32.0176 82.3343 32.0196 82.3316 32.0208 82.3288 32.0208L62.9374 32.0208 62.9374 12.6294C62.9375 12.6234 62.9425 12.6185 62.9486 12.6185 62.9514 12.6186 62.9542 12.6197 62.9562 12.6217ZM22.0833 94.9582 22.0833 11.0417 60.7291 11.0417 60.7291 34.2291 83.9166 34.2291 83.9166 94.9582Z" transform="matrix(1 0 0 1.10378 1347 1260)"/></g></g></g><g><g><g><path d="M64.9166 30.0833 49.0833 30.0833 49.0833 20.5833 64.9166 20.5833 64.9166 30.0833ZM64.9166 42.75 49.0833 42.75 49.0833 33.25 64.9166 33.25 64.9166 42.75ZM64.9166 55.4166 49.0833 55.4166 49.0833 45.9166 64.9166 45.9166 64.9166 55.4166ZM30.0833 55.4166 30.0833 45.9166 45.9166 45.9166 45.9166 55.4166 30.0833 55.4166ZM11.0833 55.4166 11.0833 45.9166 26.9167 45.9166 26.9167 55.4166 11.0833 55.4166ZM11.0833 33.25 26.9167 33.25 26.9167 42.75 11.0833 42.75 11.0833 33.25ZM11.0833 20.5833 26.9167 20.5833 26.9167 30.0833 11.0833 30.0833 11.0833 20.5833ZM45.9166 33.25 45.9166 42.75 30.0833 42.75 30.0833 33.25 45.9166 33.25ZM45.9166 20.5833 45.9166 30.0833 30.0833 30.0833 30.0833 20.5833 45.9166 20.5833ZM6.33333 15.8333 6.33333 60.1666 69.6666 60.1666 69.6666 15.8333 6.33333 15.8333Z" transform="matrix(1 0 0 1.06579 1349 1290)"/></g></g></g><g><g><g><path d="M19.875 8.83335 19.875 97.1669 86.1252 97.1669 86.1252 32.6679 62.2906 8.83335ZM62.9564 12.6218 82.3368 32.0021C82.3411 32.0064 82.341 32.0135 82.3367 32.0177 82.3346 32.0197 82.3319 32.0209 82.329 32.0209L62.9376 32.0209 62.9376 12.6295C62.9377 12.6234 62.9427 12.6186 62.9488 12.6186 62.9517 12.6187 62.9544 12.6198 62.9564 12.6218ZM22.0834 94.9585 22.0834 11.0417 60.7293 11.0417 60.7293 34.2292 83.9168 34.2292 83.9168 94.9585Z" transform="matrix(1 0 0 1.09434 1624 1827)"/></g></g></g><g><g><g><path d="M64.9166 30.0833 49.0833 30.0833 49.0833 20.5833 64.9166 20.5833 64.9166 30.0833ZM64.9166 42.75 49.0833 42.75 49.0833 33.25 64.9166 33.25 64.9166 42.75ZM64.9166 55.4166 49.0833 55.4166 49.0833 45.9166 64.9166 45.9166 64.9166 55.4166ZM30.0833 55.4166 30.0833 45.9166 45.9166 45.9166 45.9166 55.4166 30.0833 55.4166ZM11.0833 55.4166 11.0833 45.9166 26.9167 45.9166 26.9167 55.4166 11.0833 55.4166ZM11.0833 33.25 26.9167 33.25 26.9167 42.75 11.0833 42.75 11.0833 33.25ZM11.0833 20.5833 26.9167 20.5833 26.9167 30.0833 11.0833 30.0833 11.0833 20.5833ZM45.9166 33.25 45.9166 42.75 30.0833 42.75 30.0833 33.25 45.9166 33.25ZM45.9166 20.5833 45.9166 30.0833 30.0833 30.0833 30.0833 20.5833 45.9166 20.5833ZM6.33333 15.8333 6.33333 60.1666 69.6666 60.1666 69.6666 15.8333 6.33333 15.8333Z" transform="matrix(1 0 0 1.06579 1626 1856)"/></g></g></g><g><g><g><path d="M88.8332 41.1666 67.1665 41.1666 67.1665 28.1666 88.8332 28.1666 88.8332 41.1666ZM88.8332 58.4999 67.1665 58.4999 67.1665 45.4999 88.8332 45.4999 88.8332 58.4999ZM88.8332 75.8332 67.1665 75.8332 67.1665 62.8332 88.8332 62.8332 88.8332 75.8332ZM41.1666 75.8332 41.1666 62.8332 62.8332 62.8332 62.8332 75.8332 41.1666 75.8332ZM15.1666 75.8332 15.1666 62.8332 36.8333 62.8332 36.8333 75.8332 15.1666 75.8332ZM15.1666 45.4999 36.8333 45.4999 36.8333 58.4999 15.1666 58.4999 15.1666 45.4999ZM15.1666 28.1666 36.8333 28.1666 36.8333 41.1666 15.1666 41.1666 15.1666 28.1666ZM62.8332 45.4999 62.8332 58.4999 41.1666 58.4999 41.1666 45.4999 62.8332 45.4999ZM62.8332 28.1666 62.8332 41.1666 41.1666 41.1666 41.1666 28.1666 62.8332 28.1666ZM8.66665 21.6666 8.66665 82.3332 95.3331 82.3332 95.3331 21.6666 8.66665 21.6666Z" transform="matrix(1 0 0 1 57.0001 2044)"/></g></g></g></g></svg>